<svg xmlns="http://www.w3.org/2000/svg" viewBox="0 0 247.01 228.62"><defs><style>.cls-1{fill:#1d1d1b;}.cls-1,.cls-2{stroke:#1d1d1b;stroke-miterlimit:10;}.cls-2{fill:none;}</style></defs><g id="Calque_2" data-name="Calque 2"><g id="Calque_1-2" data-name="Calque 1"><line class="cls-1" x1="77.29" y1="3.76" x2="31.84" y2="18.05"/><line class="cls-2" x1="9.89" y1="48.69" x2="31.84" y2="18.05"/><line class="cls-2" x1="3.76" y1="78.31" x2="9.89" y2="48.69"/><line class="cls-2" x1="9.89" y1="107.6" x2="3.76" y2="78.31"/><line class="cls-2" x1="29.8" y1="133.97" x2="9.89" y2="107.6"/><line class="cls-2" x1="65.04" y1="150.31" x2="29.8" y2="133.97"/><line class="cls-2" x1="113.55" y1="146.73" x2="65.04" y2="150.31"/><line class="cls-2" x1="142.39" y1="120.78" x2="113.55" y2="146.73"/><line class="cls-2" x1="170.23" y1="110.99" x2="142.39" y2="120.78"/><line class="cls-2" x1="201.38" y1="125.8" x2="170.23" y2="110.99"/><line class="cls-2" x1="209.55" y1="155.41" x2="201.38" y2="125.8"/><line class="cls-2" x1="197.29" y1="182.48" x2="209.55" y2="155.41"/><line class="cls-2" x1="167.67" y1="193.2" x2="197.29" y2="182.48"/><line class="cls-2" x1="167.67" y1="224.86" x2="167.67" y2="193.2"/><line class="cls-2" x1="212.1" y1="214.65" x2="167.67" y2="224.86"/><line class="cls-2" x1="236.1" y1="181.97" x2="212.1" y2="214.65"/><line class="cls-2" x1="243.25" y1="136.01" x2="236.1" y2="181.97"/><line class="cls-2" x1="228.44" y1="107.6" x2="243.25" y2="136.01"/><line class="cls-2" x1="196.78" y1="82.9" x2="228.44" y2="107.6"/><line class="cls-2" x1="142.65" y1="80.35" x2="196.78" y2="82.9"/><line class="cls-2" x1="109.46" y1="107.6" x2="142.65" y2="80.35"/><line class="cls-2" x1="80.36" y1="120.78" x2="109.46" y2="107.6"/><line class="cls-2" x1="47.42" y1="107.6" x2="80.36" y2="120.78"/><line class="cls-2" x1="36.95" y1="76.27" x2="47.42" y2="107.6"/><line class="cls-2" x1="50.74" y1="48.69" x2="36.95" y2="76.27"/><line class="cls-2" x1="77.29" y1="38.48" x2="50.74" y2="48.69"/><line class="cls-2" x1="77.29" y1="3.76" x2="77.29" y2="38.48"/><line class="cls-2" x1="54.57" y1="72.18" x2="69.12" y2="58.9"/><line class="cls-2" x1="89.29" y1="58.9" x2="69.12" y2="58.9"/><line class="cls-2" x1="101.03" y1="73.2" x2="89.29" y2="58.9"/><line class="cls-2" x1="94.91" y1="91.93" x2="101.03" y2="73.2"/><line class="cls-2" x1="73.72" y1="97.71" x2="94.91" y2="91.93"/><line class="cls-2" x1="56.87" y1="88.01" x2="73.72" y2="97.71"/><line class="cls-2" x1="54.57" y1="72.18" x2="56.87" y2="88.01"/><line class="cls-2" x1="142.65" y1="155.92" x2="152.87" y2="136.52"/><line class="cls-2" x1="178.4" y1="133.76" x2="152.87" y2="136.52"/><line class="cls-2" x1="189.89" y1="148.52" x2="178.4" y2="133.76"/><line class="cls-2" x1="178.91" y1="168.95" x2="189.89" y2="148.52"/><line class="cls-2" x1="156.31" y1="172.27" x2="178.91" y2="168.95"/><line class="cls-2" x1="142.65" y1="155.92" x2="156.31" y2="172.27"/><circle class="cls-1" cx="77.22" cy="3.76" r="3.26"/><circle class="cls-1" cx="31.84" cy="18.05" r="3.26"/><circle class="cls-1" cx="77.22" cy="38.51" r="3.26"/><circle class="cls-1" cx="50.74" cy="48.69" r="3.26"/><circle class="cls-1" cx="37.39" cy="75.38" r="3.26"/><circle class="cls-1" cx="9.89" cy="48.69" r="3.26"/><circle class="cls-1" cx="3.76" cy="78.31" r="3.26"/><circle class="cls-1" cx="29.8" cy="133.97" r="3.26"/><circle class="cls-1" cx="48.28" cy="107.94" r="3.26"/><circle class="cls-1" cx="80.36" cy="120.78" r="3.26"/><circle class="cls-1" cx="65.04" cy="150.31" r="3.26"/><circle class="cls-1" cx="73.72" cy="97.71" r="3.26"/><circle class="cls-1" cx="57.35" cy="88.29" r="3.26"/><circle class="cls-1" cx="109.46" cy="107.6" r="3.26"/><circle class="cls-1" cx="54.63" cy="72.13" r="3.26"/><circle class="cls-1" cx="69.12" cy="58.9" r="3.26"/><circle class="cls-1" cx="89.29" cy="58.9" r="3.26"/><circle class="cls-1" cx="101.03" cy="73.2" r="3.26"/><circle class="cls-1" cx="94.91" cy="91.55" r="3.26"/><circle class="cls-1" cx="142.65" cy="80.35" r="3.26"/><circle class="cls-1" cx="196.78" cy="82.9" r="3.26"/><circle class="cls-1" cx="228.44" cy="107.6" r="3.26"/><circle class="cls-1" cx="113.35" cy="146.91" r="3.26"/><circle class="cls-1" cx="142.65" cy="120.78" r="3.26"/><circle class="cls-1" cx="170.42" cy="111.09" r="3.26"/><circle class="cls-1" cx="201.38" cy="125.8" r="3.26"/><circle class="cls-1" cx="152.87" cy="136.52" r="3.26"/><circle class="cls-1" cx="142.65" cy="155.92" r="3.26"/><circle class="cls-1" cx="178.4" cy="133.76" r="3.26"/><circle class="cls-1" cx="189.89" cy="148.52" r="3.26"/><circle class="cls-1" cx="179.25" cy="168.31" r="3.26"/><circle class="cls-1" cx="156.31" cy="172.27" r="3.26"/><circle class="cls-1" cx="209.55" cy="155.41" r="3.26"/><circle class="cls-1" cx="243.25" cy="136.01" r="3.26"/><circle class="cls-1" cx="236.1" cy="181.97" r="3.26"/><circle class="cls-1" cx="198.12" cy="182.18" r="3.26"/><circle class="cls-1" cx="167.67" cy="193.2" r="3.26"/><circle class="cls-1" cx="167.61" cy="224.86" r="3.26"/><circle class="cls-1" cx="212.1" cy="214.65" r="3.26"/><line class="cls-2" x1="31.84" y1="18.05" x2="50.74" y2="48.69"/><line class="cls-2" x1="9.89" y1="48.69" x2="50.74" y2="48.69"/><line class="cls-2" x1="3.76" y1="78.31" x2="37.39" y2="75.38"/><line class="cls-2" x1="9.89" y1="48.69" x2="37.39" y2="75.38"/><circle class="cls-1" cx="9.89" cy="109.29" r="3.26"/><line class="cls-2" x1="31.84" y1="18.05" x2="77.29" y2="38.48"/><line class="cls-2" x1="9.89" y1="109.29" x2="37.39" y2="75.38"/><line class="cls-2" x1="29.8" y1="133.97" x2="48.28" y2="107.94"/><line class="cls-2" x1="9.89" y1="109.29" x2="48.28" y2="107.94"/><line class="cls-2" x1="65.04" y1="150.31" x2="48.28" y2="107.94"/><line class="cls-2" x1="80.36" y1="120.78" x2="68.3" y2="150.31"/><line class="cls-2" x1="113.55" y1="146.73" x2="80.36" y2="120.78"/><line class="cls-2" x1="109.46" y1="107.6" x2="113.55" y2="146.73"/><line class="cls-2" x1="142.65" y1="120.78" x2="109.46" y2="107.6"/><line class="cls-2" x1="142.65" y1="80.35" x2="142.65" y2="122.54"/><line class="cls-2" x1="170.23" y1="110.99" x2="140.11" y2="78.31"/><line class="cls-2" x1="196.78" y1="82.9" x2="170.23" y2="110.99"/><line class="cls-2" x1="201.38" y1="125.8" x2="196.78" y2="86.16"/><line class="cls-2" x1="228.44" y1="107.6" x2="201.38" y2="125.8"/><line class="cls-2" x1="243.25" y1="136.01" x2="201.38" y2="125.8"/><line class="cls-2" x1="209.55" y1="155.41" x2="243.25" y2="136.01"/><line class="cls-2" x1="236.1" y1="181.97" x2="209.55" y2="155.41"/><line class="cls-2" x1="201.38" y1="182.18" x2="237.63" y2="182.18"/><line class="cls-2" x1="212.1" y1="216.52" x2="198.12" y2="182.18"/><line class="cls-2" x1="167.67" y1="226.39" x2="198.12" y2="182.18"/></g></g></svg>